<svg xmlns="http://www.w3.org/2000/svg" viewBox="0 0 64 64">
  <rect width="64" height="64" rx="14" fill="#17324d" />
  <path
    d="M17 16.5C17 14.57 18.57 13 20.5 13H31v38H20.5A3.5 3.5 0 0 0 17 54.5V16.5Z"
    fill="#f4efe6"
  />
  <path
    d="M47 16.5C47 14.57 45.43 13 43.5 13H33v38h10.5a3.5 3.5 0 0 1 3.5 3.5V16.5Z"
    fill="#d9e6f2"
  />
  <path d="M32 13h2v41h-2Z" fill="#b27a3d" />
  <path d="M21 22h7v2h-7Zm0 6h7v2h-7Zm0 6h7v2h-7Z" fill="#17324d" />
  <path d="M36 22h7v2h-7Zm0 6h7v2h-7Zm0 6h7v2h-7Z" fill="#355c7d" />
  <path
    d="M17 50.5c0-1.93 1.57-3.5 3.5-3.5H31v4H20.5A3.5 3.5 0 0 0 17 54.5v-4Z"
    fill="#eadfcd"
  />
  <path
    d="M47 50.5c0-1.93-1.57-3.5-3.5-3.5H33v4h10.5a3.5 3.5 0 0 1 3.5 3.5v-4Z"
    fill="#c6d7e6"
  />
</svg>
